<svg xmlns="http://www.w3.org/2000/svg" width="24" height="24" fill="none" viewBox="0 0 24 24"><path fill="#fff" fill-opacity=".8" d="M16.5 9a4.5 4.5 0 1 1-9 0 4.5 4.5 0 0 1 9 0" opacity=".2"/><path fill="#fff" fill-opacity=".8" d="M20.25 9a8.25 8.25 0 1 0-13.5 6.36v7.14a.75.75 0 0 0 1.086.671L12 21.094l4.165 2.082c.105.05.22.075.335.074a.75.75 0 0 0 .75-.75v-7.14a8.24 8.24 0 0 0 3-6.36m-15 0A6.75 6.75 0 1 1 12 15.75 6.76 6.76 0 0 1 5.25 9m10.5 12.287-3.415-1.707a.75.75 0 0 0-.672 0L8.25 21.287v-4.94a8.24 8.24 0 0 0 7.5 0zM12 14.25a5.25 5.25 0 1 0 0-10.499 5.25 5.25 0 0 0 0 10.499m0-9a3.75 3.75 0 1 1 0 7.5 3.75 3.75 0 0 1 0-7.5"/></svg>