<svg xmlns="http://www.w3.org/2000/svg" width="13" height="13" fill="none" viewBox="0 0 13 13"><path fill="url(#a)" fill-opacity=".6" d="M11.477 4.748c-.207-.216-.42-.438-.5-.633-.075-.179-.079-.475-.083-.762-.008-.534-.017-1.139-.438-1.56-.42-.42-1.025-.429-1.559-.437-.287-.004-.583-.009-.762-.083-.195-.08-.417-.294-.633-.5C7.125.411 6.696 0 6.125 0c-.57 0-1 .41-1.377.773-.216.206-.438.42-.633.5-.178.075-.475.079-.762.083-.534.008-1.139.017-1.56.438-.42.42-.426 1.025-.437 1.559-.004.287-.009.583-.083.762-.08.195-.294.417-.5.633C.411 5.125 0 5.554 0 6.125c0 .57.41 1 .773 1.377.206.216.42.438.5.633.075.179.079.475.083.762.008.534.017 1.139.438 1.56.42.42 1.025.428 1.559.437.287.004.583.008.762.083.195.08.417.293.633.5.377.362.806.773 1.377.773.57 0 1-.41 1.377-.773.216-.207.438-.42.633-.5.179-.075.475-.079.762-.083.534-.008 1.139-.017 1.56-.438.42-.42.428-1.025.437-1.559.004-.287.008-.583.083-.762.08-.195.293-.417.5-.633.362-.377.773-.806.773-1.377 0-.57-.41-1-.773-1.377m-.632 2.149c-.262.273-.533.556-.677.903-.138.334-.144.715-.15 1.084-.005.383-.01.784-.18.953-.17.17-.569.176-.954.182-.37.005-.75.011-1.084.149-.347.144-.63.415-.903.677-.274.262-.553.53-.772.53s-.5-.27-.772-.53c-.27-.26-.556-.533-.903-.677-.334-.138-.715-.144-1.084-.15-.383-.005-.784-.01-.953-.18-.17-.17-.176-.569-.182-.954-.005-.37-.011-.75-.149-1.084-.144-.347-.415-.63-.677-.903-.262-.274-.53-.553-.53-.772s.27-.5.53-.772c.26-.27.533-.556.677-.903.138-.334.144-.715.15-1.084.005-.383.01-.784.18-.953.17-.17.569-.176.954-.182.37-.005.75-.011 1.084-.149.347-.144.63-.415.903-.677.274-.262.553-.53.772-.53s.5.27.772.53c.27.26.556.533.903.677.334.138.715.144 1.084.15.383.005.784.01.953.18.17.17.176.569.182.954.005.37.011.75.149 1.084.144.347.415.63.677.903.262.274.53.553.53.772s-.27.5-.53.772M8.622 4.503a.437.437 0 0 1 0 .619L5.56 8.185a.437.437 0 0 1-.62 0L3.628 6.872a.438.438 0 0 1 .619-.619L5.25 7.256l2.753-2.753a.437.437 0 0 1 .619 0"/><defs><linearGradient id="a" x1="6.125" x2="6.125" y1="0" y2="12.25" gradientUnits="userSpaceOnUse"><stop stop-color="#032e15"/><stop offset="1" stop-color="#016630"/></linearGradient></defs></svg>