<svg xmlns="http://www.w3.org/2000/svg" width="19" height="19" fill="none" viewBox="0 0 19 19"><path fill="#fff" fill-rule="evenodd" d="M13.147 0h-8.09A5.056 5.056 0 0 0 0 5.056v8.09a5.056 5.056 0 0 0 5.056 5.057h8.09a5.057 5.057 0 0 0 5.057-5.056v-8.09A5.056 5.056 0 0 0 13.147 0m3.286 13.147a3.297 3.297 0 0 1-3.286 3.286h-8.09a3.297 3.297 0 0 1-3.287-3.286v-8.09A3.297 3.297 0 0 1 5.056 1.77h8.09a3.297 3.297 0 0 1 3.287 3.286zm-2.528-7.838a1.011 1.011 0 1 0 0-2.022 1.011 1.011 0 0 0 0 2.022m-4.803-.758a4.55 4.55 0 1 0 4.55 4.55 4.54 4.54 0 0 0-4.55-4.55M6.32 9.1a2.781 2.781 0 1 0 5.562 0 2.781 2.781 0 0 0-5.562 0" clip-rule="evenodd"/></svg>