<svg xmlns="http://www.w3.org/2000/svg" width="27" height="27" fill="none" viewBox="0 0 27 27"><path fill="#032e15" d="m26.249 24.015-5.135-5.135a11.67 11.67 0 0 0 2.41-7.116c0-3.142-1.224-6.096-3.447-8.318A11.7 11.7 0 0 0 11.76 0a11.7 11.7 0 0 0-8.32 3.446c-4.587 4.587-4.587 12.05 0 16.637a11.7 11.7 0 0 0 8.319 3.446 11.67 11.67 0 0 0 7.116-2.41l5.135 5.135a1.58 1.58 0 0 0 2.239 0 1.583 1.583 0 0 0 0-2.239m-20.57-6.17c-3.352-3.353-3.352-8.808 0-12.16a8.54 8.54 0 0 1 6.08-2.518c2.297 0 4.456.894 6.08 2.518a8.54 8.54 0 0 1 2.518 6.08 8.54 8.54 0 0 1-2.518 6.08 8.54 8.54 0 0 1-6.08 2.518 8.54 8.54 0 0 1-6.08-2.519"/></svg>